name rise30.2954peak35.7071fall66.7804.mot
datacolumns 19
datarows 33
range 19.72660200000000 19.77992500000000
endheader
time	ground_force1_vx	ground_force1_vy	ground_force1_vz	ground_force1_px	ground_force1_py	ground_force1_pz	ground_force2_vx	ground_force2_vy	ground_force2_vz	ground_force2_px	ground_force2_py	ground_force2_pz	ground_torque1_x	ground_torque1_y	ground_torque1_z	ground_torque2_x	ground_torque2_y	ground_torque2_z	
19.72660200000000	60.26008400000000	742.32887900000003	46.36026000000000	0.26890300000000	0.00000000000000	0.08541300000000	0.15548400000000	6.86642600000000	0.88442400000000	0.00000000000000	0.00000000000000	0.00000000000000	0.00000000000000	13.78035600000000	0.00000000000000	0.00000000000000	-0.11361100000000	0.00000000000000	
19.72825800000000	60.00259900000000	747.18857400000002	46.59727400000000	0.26835200000000	0.00000000000000	0.08538000000000	0.35718600000000	3.39425000000000	0.50024300000000	0.00000000000000	0.00000000000000	0.00000000000000	0.00000000000000	13.86189800000000	0.00000000000000	0.00000000000000	-0.03652700000000	0.00000000000000	
19.72992500000000	59.73660100000000	751.90235399999995	46.83608500000000	0.26779800000000	0.00000000000000	0.08534900000000	0.00000000000000	0.00000000000000	0.00000000000000	0.00000000000000	0.00000000000000	0.00000000000000	0.00000000000000	13.94589500000000	0.00000000000000	0.00000000000000	0.00000000000000	0.00000000000000	
19.73159900000000	59.46236200000000	756.46568200000002	47.07640700000000	0.26723800000000	0.00000000000000	0.08531900000000	0.00000000000000	0.00000000000000	0.00000000000000	0.00000000000000	0.00000000000000	0.00000000000000	0.00000000000000	14.03218600000000	0.00000000000000	0.00000000000000	0.00000000000000	0.00000000000000	
19.73326200000000	59.18012500000000	760.87422600000002	47.31787100000000	0.26667200000000	0.00000000000000	0.08528900000000	0.00000000000000	0.00000000000000	0.00000000000000	0.00000000000000	0.00000000000000	0.00000000000000	0.00000000000000	14.12056700000000	0.00000000000000	0.00000000000000	0.00000000000000	0.00000000000000	
19.73493300000000	58.89010400000000	765.12387000000001	47.56003000000000	0.26609800000000	0.00000000000000	0.08526200000000	0.00000000000000	0.00000000000000	0.00000000000000	0.00000000000000	0.00000000000000	0.00000000000000	0.00000000000000	14.21079500000000	0.00000000000000	0.00000000000000	0.00000000000000	0.00000000000000	
19.73659400000000	58.59248600000000	769.21073600000000	47.80236200000000	0.26551600000000	0.00000000000000	0.08523500000000	0.00000000000000	0.00000000000000	0.00000000000000	0.00000000000000	0.00000000000000	0.00000000000000	0.00000000000000	14.30259300000000	0.00000000000000	0.00000000000000	0.00000000000000	0.00000000000000	
19.73825900000000	58.28743600000000	773.13119099999994	48.04428100000000	0.26492400000000	0.00000000000000	0.08521000000000	0.00000000000000	0.00000000000000	0.00000000000000	0.00000000000000	0.00000000000000	0.00000000000000	0.00000000000000	14.39565200000000	0.00000000000000	0.00000000000000	0.00000000000000	0.00000000000000	
19.73993000000000	57.97509600000000	776.88187000000005	48.28513500000000	0.26432000000000	0.00000000000000	0.08518600000000	0.00000000000000	0.00000000000000	0.00000000000000	0.00000000000000	0.00000000000000	0.00000000000000	0.00000000000000	14.48963300000000	0.00000000000000	0.00000000000000	0.00000000000000	0.00000000000000	
19.74159700000000	57.65558900000000	780.45967800000005	48.52422300000000	0.26370500000000	0.00000000000000	0.08516300000000	0.00000000000000	0.00000000000000	0.00000000000000	0.00000000000000	0.00000000000000	0.00000000000000	0.00000000000000	14.58417300000000	0.00000000000000	0.00000000000000	0.00000000000000	0.00000000000000	
19.74326600000000	57.32902400000000	783.86181399999998	48.76079200000000	0.26307700000000	0.00000000000000	0.08514200000000	0.00000000000000	0.00000000000000	0.00000000000000	0.00000000000000	0.00000000000000	0.00000000000000	0.00000000000000	14.67888400000000	0.00000000000000	0.00000000000000	0.00000000000000	0.00000000000000	
19.74493800000000	56.99549300000000	787.08577100000002	48.99405000000000	0.26243600000000	0.00000000000000	0.08512100000000	0.00000000000000	0.00000000000000	0.00000000000000	0.00000000000000	0.00000000000000	0.00000000000000	0.00000000000000	14.77336200000000	0.00000000000000	0.00000000000000	0.00000000000000	0.00000000000000	
19.74659500000000	56.65507900000000	790.12935100000004	49.22317400000000	0.26178000000000	0.00000000000000	0.08510200000000	0.00000000000000	0.00000000000000	0.00000000000000	0.00000000000000	0.00000000000000	0.00000000000000	0.00000000000000	14.86718500000000	0.00000000000000	0.00000000000000	0.00000000000000	0.00000000000000	
19.74826200000000	56.30785700000000	792.99067500000001	49.44731200000000	0.26110800000000	0.00000000000000	0.08508400000000	0.00000000000000	0.00000000000000	0.00000000000000	0.00000000000000	0.00000000000000	0.00000000000000	0.00000000000000	14.95992100000000	0.00000000000000	0.00000000000000	0.00000000000000	0.00000000000000	
19.74993300000000	55.95389500000000	795.66818499999999	49.66559600000000	0.26042100000000	0.00000000000000	0.08506700000000	0.00000000000000	0.00000000000000	0.00000000000000	0.00000000000000	0.00000000000000	0.00000000000000	0.00000000000000	15.05113100000000	0.00000000000000	0.00000000000000	0.00000000000000	0.00000000000000	
19.75159100000000	55.59325800000000	798.16065600000002	49.87714400000000	0.25971800000000	0.00000000000000	0.08505200000000	0.00000000000000	0.00000000000000	0.00000000000000	0.00000000000000	0.00000000000000	0.00000000000000	0.00000000000000	15.14036900000000	0.00000000000000	0.00000000000000	0.00000000000000	0.00000000000000	
19.75326000000000	55.22601000000000	800.46719599999994	50.08107300000000	0.25899800000000	0.00000000000000	0.08503700000000	0.00000000000000	0.00000000000000	0.00000000000000	0.00000000000000	0.00000000000000	0.00000000000000	0.00000000000000	15.22719100000000	0.00000000000000	0.00000000000000	0.00000000000000	0.00000000000000	
19.75492800000000	54.85221600000000	802.58725400000003	50.27650300000000	0.25826000000000	0.00000000000000	0.08502300000000	0.00000000000000	0.00000000000000	0.00000000000000	0.00000000000000	0.00000000000000	0.00000000000000	0.00000000000000	15.31115600000000	0.00000000000000	0.00000000000000	0.00000000000000	0.00000000000000	
19.75659600000000	54.47194600000000	804.52061900000001	50.46256200000000	0.25750500000000	0.00000000000000	0.08501000000000	0.00000000000000	0.00000000000000	0.00000000000000	0.00000000000000	0.00000000000000	0.00000000000000	0.00000000000000	15.39182600000000	0.00000000000000	0.00000000000000	0.00000000000000	0.00000000000000	
19.75826500000000	54.08527300000000	806.26742400000001	50.63839800000000	0.25673300000000	0.00000000000000	0.08499800000000	0.00000000000000	0.00000000000000	0.00000000000000	0.00000000000000	0.00000000000000	0.00000000000000	0.00000000000000	15.46877600000000	0.00000000000000	0.00000000000000	0.00000000000000	0.00000000000000	
19.75992600000000	53.69228200000000	807.82814699999994	50.80318100000000	0.25594300000000	0.00000000000000	0.08498600000000	0.00000000000000	0.00000000000000	0.00000000000000	0.00000000000000	0.00000000000000	0.00000000000000	0.00000000000000	15.54159300000000	0.00000000000000	0.00000000000000	0.00000000000000	0.00000000000000	
19.76160800000000	53.29306400000000	809.20360500000004	50.95611100000000	0.25513500000000	0.00000000000000	0.08497500000000	0.00000000000000	0.00000000000000	0.00000000000000	0.00000000000000	0.00000000000000	0.00000000000000	0.00000000000000	15.60987900000000	0.00000000000000	0.00000000000000	0.00000000000000	0.00000000000000	
19.76326000000000	52.88772400000000	810.39495699999998	51.09642300000000	0.25430900000000	0.00000000000000	0.08496400000000	0.00000000000000	0.00000000000000	0.00000000000000	0.00000000000000	0.00000000000000	0.00000000000000	0.00000000000000	15.67325600000000	0.00000000000000	0.00000000000000	0.00000000000000	0.00000000000000	
19.76492900000000	52.47637800000000	811.40369899999996	51.22339500000000	0.25346600000000	0.00000000000000	0.08495400000000	0.00000000000000	0.00000000000000	0.00000000000000	0.00000000000000	0.00000000000000	0.00000000000000	0.00000000000000	15.73136600000000	0.00000000000000	0.00000000000000	0.00000000000000	0.00000000000000	
19.76659600000000	52.05915700000000	812.23166100000003	51.33634800000000	0.25260600000000	0.00000000000000	0.08494500000000	0.00000000000000	0.00000000000000	0.00000000000000	0.00000000000000	0.00000000000000	0.00000000000000	0.00000000000000	15.78387600000000	0.00000000000000	0.00000000000000	0.00000000000000	0.00000000000000	
19.76825900000000	51.63620900000000	812.88099599999998	51.43465600000000	0.25172900000000	0.00000000000000	0.08493500000000	0.00000000000000	0.00000000000000	0.00000000000000	0.00000000000000	0.00000000000000	0.00000000000000	0.00000000000000	15.83047700000000	0.00000000000000	0.00000000000000	0.00000000000000	0.00000000000000	
19.76992800000000	51.20769700000000	813.35418200000004	51.51774700000000	0.25083500000000	0.00000000000000	0.08492500000000	0.00000000000000	0.00000000000000	0.00000000000000	0.00000000000000	0.00000000000000	0.00000000000000	0.00000000000000	15.87089000000000	0.00000000000000	0.00000000000000	0.00000000000000	0.00000000000000	
19.77159600000000	50.77380200000000	813.65400599999998	51.58510600000000	0.24992600000000	0.00000000000000	0.08491600000000	0.00000000000000	0.00000000000000	0.00000000000000	0.00000000000000	0.00000000000000	0.00000000000000	0.00000000000000	15.90486300000000	0.00000000000000	0.00000000000000	0.00000000000000	0.00000000000000	
19.77326100000000	50.33472300000000	813.78356099999996	51.63628300000000	0.24900100000000	0.00000000000000	0.08490600000000	0.00000000000000	0.00000000000000	0.00000000000000	0.00000000000000	0.00000000000000	0.00000000000000	0.00000000000000	15.93217600000000	0.00000000000000	0.00000000000000	0.00000000000000	0.00000000000000	
19.77492900000000	49.89067800000000	813.74623499999996	51.67088900000000	0.24806100000000	0.00000000000000	0.08489600000000	0.00000000000000	0.00000000000000	0.00000000000000	0.00000000000000	0.00000000000000	0.00000000000000	0.00000000000000	15.95264200000000	0.00000000000000	0.00000000000000	0.00000000000000	0.00000000000000	
19.77659800000000	49.44190300000000	813.54569900000001	51.68860200000000	0.24710800000000	0.00000000000000	0.08488600000000	0.00000000000000	0.00000000000000	0.00000000000000	0.00000000000000	0.00000000000000	0.00000000000000	0.00000000000000	15.96610400000000	0.00000000000000	0.00000000000000	0.00000000000000	0.00000000000000	
19.77825800000000	48.98865400000000	813.18589799999995	51.68916800000000	0.24614100000000	0.00000000000000	0.08487600000000	0.00000000000000	0.00000000000000	0.00000000000000	0.00000000000000	0.00000000000000	0.00000000000000	0.00000000000000	15.97244100000000	0.00000000000000	0.00000000000000	0.00000000000000	0.00000000000000	
19.77992500000000	48.53120600000000	812.67103799999995	51.67240500000000	0.24516200000000	0.00000000000000	0.08486400000000	0.00000000000000	0.00000000000000	0.00000000000000	0.00000000000000	0.00000000000000	0.00000000000000	0.00000000000000	15.97156200000000	0.00000000000000	0.00000000000000	0.00000000000000	0.00000000000000	
